<?xml version="1.0" encoding="utf-8"?>
<!-- Generator: Adobe Illustrator 16.0.3, SVG Export Plug-In . SVG Version: 6.00 Build 0)  -->
<!DOCTYPE svg PUBLIC "-//W3C//DTD SVG 1.1//EN" "http://www.w3.org/Graphics/SVG/1.1/DTD/svg11.dtd">
<svg version="1.1" id="Layer_1" xmlns="http://www.w3.org/2000/svg" xmlns:xlink="http://www.w3.org/1999/xlink" x="0px" y="0px"
	 width="21.495px" height="23.813px" viewBox="0 0 21.495 23.813" enable-background="new 0 0 21.495 23.813" xml:space="preserve">
<path fill-rule="evenodd" clip-rule="evenodd" fill="#00FFFF" d="M0,12.999c0.687-0.639,1.458-1.356,2.299-2.139
	c2.154,2.163,4.357,4.376,6.813,6.841c0-6.106,0-11.866,0-17.701c1.155,0,2.157,0,3.316,0c0,5.774,0,11.532,0,17.323
	c2.28-2.295,4.469-4.498,6.736-6.78c0.967,1.082,1.687,1.889,2.33,2.609c-3.523,3.519-7.148,7.137-10.679,10.661
	C7.339,20.337,3.718,16.717,0,12.999z"/>
</svg>
