<?xml version="1.0" encoding="utf-8"?>
<!-- Generator: Adobe Illustrator 16.0.3, SVG Export Plug-In . SVG Version: 6.00 Build 0)  -->
<!DOCTYPE svg PUBLIC "-//W3C//DTD SVG 1.1//EN" "http://www.w3.org/Graphics/SVG/1.1/DTD/svg11.dtd">
<svg version="1.1" id="Layer_1" xmlns="http://www.w3.org/2000/svg" xmlns:xlink="http://www.w3.org/1999/xlink" x="0px" y="0px"
	 width="23.813px" height="21.495px" viewBox="0 0 23.813 21.495" enable-background="new 0 0 23.813 21.495" xml:space="preserve">
<path fill-rule="evenodd" clip-rule="evenodd" fill="#00FFFF" d="M12.999,21.495c-0.639-0.688-1.356-1.459-2.139-2.3
	c2.163-2.154,4.376-4.357,6.841-6.813c-6.106,0-11.866,0-17.701,0c0-1.155,0-2.157,0-3.316c5.774,0,11.532,0,17.323,0
	c-2.295-2.28-4.498-4.469-6.78-6.736c1.082-0.967,1.889-1.687,2.609-2.33c3.519,3.523,7.137,7.148,10.661,10.679
	C20.337,14.155,16.717,17.776,12.999,21.495z"/>
</svg>
